<svg viewBox="0 0 32 32"
    xmlns="http://www.w3.org/2000/svg" aria-hidden="true">
    <path d="M27.57 30.222c1.472 0 2.667-1.195 2.667-2.667v-20.944c-0.528 0.309-1.136 0.5-1.792 0.5h-24.889c-0.651 0-1.253-0.187-1.778-0.492v20.937c0 1.472 1.195 2.667 2.667 2.667h23.125zM3.556 1.778c-0.983 0-1.778 0.796-1.778 1.778s0.795 1.778 1.778 1.778h24.889c0.983 0 1.778-0.796 1.778-1.778s-0.795-1.778-1.778-1.778h-24.889zM31.984 3.399c0.009 0.048 0.030 0.092 0.030 0.142v24.014c0 2.455-1.991 4.444-4.444 4.444h-23.125c-2.455 0-4.444-1.989-4.444-4.444v-24c0-1.963 1.593-3.556 3.556-3.556h24.889c1.909 0 3.458 1.509 3.54 3.399zM24 8.889c0.491 0 0.889 0.398 0.889 0.889s-0.398 0.889-0.889 0.889h-0.889c0 3.927-3.184 7.111-7.111 7.111s-7.111-3.184-7.111-7.111h-0.889c-0.491 0-0.889-0.398-0.889-0.889s0.398-0.889 0.889-0.889h3.556c0.491 0 0.889 0.398 0.889 0.889s-0.398 0.889-0.889 0.889h-0.889c0 2.946 2.388 5.333 5.333 5.333s5.333-2.388 5.333-5.333h-0.889c-0.491 0-0.889-0.398-0.889-0.889s0.398-0.889 0.889-0.889h3.556z"></path>
</svg>