<svg viewBox="0 0 32 32"
    xmlns="http://www.w3.org/2000/svg" aria-hidden="true">
    <path d="M16.759 23.913c-0.014 0-0.027-0.002-0.040-0.004-0.097-0.022-0.157-0.118-0.135-0.214l0.080-0.348c0.128-0.626 0.233-1.037 0.426-1.41 0.186-0.36 0.448-0.682 0.935-1.147 0.072-0.068 0.185-0.066 0.254 0.005s0.066 0.184-0.005 0.252c-0.873 0.831-1.018 1.192-1.258 2.372 0 0.002-0.001 0.002-0.001 0.004l-0.080 0.35c-0.019 0.083-0.093 0.139-0.175 0.139z"></path>
    <path d="M12.271 22.326c-0.025 0-0.051-0.006-0.077-0.017-0.090-0.042-0.128-0.148-0.086-0.237 0.092-0.194 0.18-0.383 0.263-0.564 0.257-0.561 0.54-1.304 0.448-2.079l-0.156-1.319c-0.001-0.010-0.002-0.019-0.001-0.029 0.033-0.705 0.167-1.401 0.4-2.068 0-0.001 0.001-0.001 0.001-0.002l1.062-2.938c0.034-0.093 0.136-0.141 0.23-0.108s0.142 0.135 0.109 0.228l-1.061 2.937c-0.22 0.63-0.347 1.287-0.379 1.953l0.155 1.305c0.103 0.862-0.202 1.665-0.478 2.268-0.084 0.183-0.173 0.374-0.266 0.569-0.031 0.063-0.096 0.101-0.163 0.101z"></path>
    <path d="M25.935 23.914c-0.082 0-0.156-0.056-0.175-0.139l-0.080-0.35c0-0.002-0.001-0.003-0.001-0.004-0.241-1.18-0.385-1.541-1.258-2.372-0.072-0.068-0.074-0.181-0.005-0.252s0.183-0.073 0.254-0.005c0.488 0.464 0.75 0.786 0.935 1.147 0.193 0.374 0.298 0.784 0.426 1.41l0.080 0.348c0.022 0.096-0.039 0.191-0.135 0.214-0.013 0.002-0.027 0.003-0.040 0.003z"></path>
    <path d="M30.424 22.327c-0.067 0-0.132-0.038-0.162-0.103-0.093-0.194-0.182-0.386-0.266-0.569-0.276-0.603-0.58-1.405-0.478-2.268l0.155-1.305c-0.032-0.665-0.16-1.321-0.378-1.95l-0.946-2.396c-0.036-0.092 0.009-0.195 0.102-0.231s0.197 0.009 0.233 0.101l0.947 2.399c0.001 0.003 0.002 0.004 0.003 0.007 0.233 0.667 0.367 1.363 0.4 2.068 0.001 0.010 0 0.019-0.001 0.029l-0.156 1.319c-0.092 0.775 0.191 1.518 0.448 2.079 0.083 0.181 0.172 0.371 0.263 0.564 0.042 0.089 0.003 0.195-0.086 0.237-0.024 0.013-0.050 0.018-0.077 0.018z"></path>
    <path d="M27.866 20.977h-12.89c-0.457 0-0.828-0.368-0.828-0.821v-12.79c0-0.453 0.371-0.821 0.828-0.821h12.89c0.457 0 0.828 0.368 0.828 0.821v12.79c0 0.453-0.372 0.821-0.828 0.821zM14.976 6.901c-0.258 0-0.469 0.209-0.469 0.465v12.79c0 0.256 0.21 0.465 0.469 0.465h12.89c0.258 0 0.469-0.209 0.469-0.465v-12.79c0-0.256-0.21-0.465-0.469-0.465h-12.89z"></path>
    <path d="M20.793 20.799c-0.099 0-0.179-0.080-0.179-0.178v-4.633c0-0.098 0.081-0.178 0.179-0.178s0.179 0.080 0.179 0.178v4.633c0 0.098-0.080 0.178-0.179 0.178z"></path>
    <path d="M20.793 12.959c-0.099 0-0.179-0.080-0.179-0.178v-5.88c0-0.098 0.081-0.178 0.179-0.178s0.179 0.080 0.179 0.178v5.88c0 0.098-0.080 0.178-0.179 0.178z"></path>
    <path d="M21.871 20.799c-0.099 0-0.18-0.080-0.18-0.178v-4.633c0-0.098 0.081-0.178 0.18-0.178s0.18 0.080 0.18 0.178v4.633c-0.001 0.098-0.081 0.178-0.18 0.178z"></path>
    <path d="M21.871 12.959c-0.099 0-0.18-0.080-0.18-0.178v-5.88c0-0.098 0.081-0.178 0.18-0.178s0.18 0.080 0.18 0.178v5.88c-0.001 0.098-0.081 0.178-0.18 0.178z"></path>
    <path d="M15.945 13.316h-1.616c-0.099 0-0.179-0.080-0.179-0.178s0.081-0.178 0.179-0.178h1.616c0.099 0 0.179 0.080 0.179 0.178s-0.080 0.178-0.179 0.178z"></path>
    <path d="M28.335 13.316h-1.796c-0.099 0-0.18-0.080-0.18-0.178s0.081-0.178 0.18-0.178h1.796c0.099 0 0.18 0.080 0.18 0.178s-0.081 0.178-0.18 0.178z"></path>
    <path d="M15.96 14.564h-1.633c-0.099 0-0.179-0.080-0.179-0.178s0.081-0.178 0.179-0.178h1.633c0.099 0 0.179 0.080 0.179 0.178s-0.080 0.178-0.179 0.178z"></path>
    <path d="M28.335 14.564h-1.796c-0.099 0-0.18-0.080-0.18-0.178s0.081-0.178 0.18-0.178h1.796c0.099 0 0.18 0.080 0.18 0.178s-0.081 0.178-0.18 0.178z"></path>
    <path d="M21.331 14.385c-0.367 0-0.714-0.083-0.978-0.232-0.296-0.168-0.458-0.401-0.458-0.658s0.163-0.491 0.458-0.659c0.264-0.149 0.612-0.232 0.978-0.232s0.714 0.083 0.978 0.232c0.296 0.168 0.458 0.401 0.458 0.659s-0.163 0.491-0.458 0.658c-0.264 0.149-0.612 0.232-0.978 0.232zM21.331 12.959c-0.635 0-1.078 0.282-1.078 0.534s0.442 0.534 1.078 0.534 1.078-0.282 1.078-0.534c0-0.252-0.442-0.534-1.078-0.534z"></path>
    <path d="M25.044 15.802c-0.175 0-0.352-0.028-0.524-0.084-0.784-0.257-1.506-0.619-1.975-0.879-0.507-0.281-0.826-0.498-0.839-0.507-0.082-0.056-0.102-0.167-0.045-0.248s0.168-0.101 0.25-0.045c0.013 0.008 1.274 0.867 2.723 1.341 0.401 0.131 0.829 0.065 1.174-0.183 0.352-0.252 0.553-0.643 0.553-1.072v-1.101c0-0.429-0.202-0.82-0.553-1.072-0.345-0.248-0.773-0.314-1.174-0.183-1.449 0.475-2.487 1.203-2.497 1.21-0.081 0.057-0.193 0.038-0.251-0.042s-0.039-0.191 0.042-0.249c0.044-0.031 1.093-0.766 2.593-1.258 0.512-0.168 1.057-0.083 1.497 0.232 0.211 0.152 0.387 0.351 0.508 0.579 0.129 0.242 0.194 0.505 0.194 0.782v1.099c0 0.277-0.066 0.54-0.194 0.782-0.121 0.227-0.296 0.427-0.508 0.579-0.291 0.209-0.629 0.316-0.973 0.316z"></path>
    <path d="M17.44 15.803c-0.344 0-0.682-0.108-0.973-0.317-0.211-0.152-0.387-0.351-0.508-0.579-0.129-0.242-0.194-0.505-0.194-0.782v-1.101c0-0.277 0.066-0.54 0.194-0.782 0.121-0.227 0.296-0.427 0.508-0.579 0.44-0.315 0.985-0.4 1.497-0.232 1.501 0.492 2.55 1.227 2.593 1.258 0.081 0.057 0.099 0.169 0.042 0.249s-0.17 0.098-0.251 0.042c-0.010-0.008-1.051-0.736-2.497-1.21-0.401-0.131-0.829-0.065-1.174 0.183-0.352 0.252-0.553 0.643-0.553 1.072v1.102c0 0.429 0.202 0.82 0.553 1.072 0.345 0.248 0.773 0.314 1.174 0.183 1.448-0.475 2.755-1.361 2.767-1.37 0.082-0.056 0.193-0.035 0.25 0.046s0.035 0.192-0.046 0.248c-0.013 0.009-0.343 0.234-0.861 0.522-0.479 0.265-1.214 0.636-1.998 0.893-0.172 0.057-0.349 0.084-0.523 0.084z"></path>
    <path d="M18.55 18.759c-0.074 0-0.142-0.046-0.168-0.117-0.006-0.015-0.14-0.373-0.185-0.845-0.027-0.28-0.017-0.543 0.029-0.782 0.060-0.306 0.18-0.572 0.357-0.793 0.656-0.813 0.788-1.286 0.789-1.291v0.001l0.348 0.088c-0.006 0.022-0.145 0.541-0.857 1.425-0.338 0.419-0.355 0.986-0.298 1.421 0.108-0.224 0.255-0.441 0.437-0.645 0.228-0.255 0.512-0.488 0.844-0.694 1.158-0.718 1.114-1.955 1.093-2.195-0.008-0.098 0.065-0.184 0.164-0.193s0.186 0.064 0.194 0.163c0.014 0.158 0.029 0.577-0.12 1.062-0.086 0.278-0.213 0.535-0.378 0.763-0.199 0.276-0.456 0.513-0.762 0.703-0.671 0.416-0.992 0.87-1.141 1.178-0.158 0.324-0.167 0.558-0.167 0.571 0.001 0.086-0.061 0.159-0.146 0.175-0.011 0.004-0.022 0.005-0.032 0.005z"></path>
    <path d="M24.069 18.759c-0.011 0-0.022-0.001-0.033-0.003-0.086-0.016-0.147-0.089-0.146-0.175 0-0.012-0.008-0.247-0.167-0.571-0.15-0.308-0.47-0.762-1.141-1.178-0.306-0.19-0.563-0.426-0.763-0.704-0.165-0.229-0.292-0.486-0.378-0.764-0.149-0.485-0.134-0.904-0.12-1.061 0.008-0.098 0.096-0.17 0.194-0.162s0.172 0.094 0.163 0.193c-0.021 0.24-0.066 1.477 1.093 2.196 0.332 0.206 0.616 0.439 0.844 0.694 0.182 0.203 0.328 0.419 0.436 0.643 0.056-0.436 0.040-1.002-0.297-1.42-0.712-0.883-0.851-1.403-0.857-1.425l0.348-0.088v-0.001c0.001 0.005 0.134 0.477 0.79 1.291 0.177 0.219 0.297 0.487 0.357 0.793 0.046 0.239 0.056 0.502 0.029 0.782-0.045 0.471-0.179 0.83-0.185 0.845-0.024 0.069-0.093 0.115-0.167 0.115z"></path>
    <path d="M19.998 13.466c-0.014 0-0.029-0.002-0.045-0.006l-0.927-0.235c-0.096-0.024-0.154-0.121-0.13-0.217s0.122-0.153 0.219-0.129l0.927 0.235c0.096 0.024 0.154 0.121 0.13 0.217-0.021 0.080-0.094 0.134-0.174 0.134z"></path>
    <path d="M19.071 14.158c-0.080 0-0.153-0.053-0.174-0.134-0.024-0.095 0.034-0.192 0.13-0.217l0.927-0.235c0.096-0.024 0.193 0.033 0.219 0.129s-0.034 0.192-0.13 0.217l-0.927 0.235c-0.015 0.004-0.030 0.006-0.045 0.006z"></path>
    <path d="M22.551 13.466c-0.080 0-0.153-0.053-0.174-0.134-0.024-0.095 0.034-0.192 0.13-0.217l0.927-0.235c0.096-0.024 0.194 0.033 0.219 0.129s-0.034 0.192-0.13 0.217l-0.927 0.235c-0.015 0.004-0.030 0.006-0.045 0.006z"></path>
    <path d="M23.478 14.158c-0.014 0-0.029-0.002-0.045-0.006l-0.927-0.235c-0.096-0.024-0.154-0.121-0.13-0.217s0.122-0.153 0.219-0.129l0.927 0.235c0.096 0.024 0.154 0.121 0.13 0.217-0.021 0.081-0.094 0.134-0.174 0.134z"></path>
    <path d="M17.269 26.023c-0.019 0-0.039-0.003-0.057-0.009-0.094-0.032-0.145-0.133-0.113-0.226l0.753-2.207c-0.177-0.128-0.426-0.285-0.634-0.415-0.093-0.058-0.179-0.113-0.247-0.156-0.083-0.054-0.106-0.164-0.052-0.247s0.166-0.105 0.249-0.052c0.065 0.043 0.151 0.096 0.242 0.154 0.258 0.162 0.58 0.363 0.766 0.513 0.059 0.047 0.082 0.125 0.057 0.196l-0.794 2.328c-0.025 0.073-0.095 0.12-0.17 0.12z"></path>
    <path d="M12.346 21.649c-0.011 0-0.023-0.001-0.034-0.003-0.275-0.053-0.833-0.080-0.839-0.080-0.099-0.005-0.176-0.088-0.171-0.187s0.089-0.174 0.188-0.169c0.024 0.001 0.589 0.028 0.889 0.086 0.098 0.018 0.162 0.112 0.142 0.209-0.016 0.086-0.091 0.145-0.176 0.145z"></path>
    <path d="M10.688 23.793c-0.019 0-0.039-0.003-0.057-0.009-0.094-0.032-0.145-0.133-0.113-0.226l0.731-2.143c0.032-0.093 0.134-0.144 0.228-0.112s0.145 0.133 0.113 0.226l-0.731 2.143c-0.026 0.073-0.096 0.121-0.171 0.121z"></path>
    <path d="M16.194 24.939c-0.067 0-0.135-0.001-0.204-0.003-0.611-0.021-1.23-0.135-1.84-0.341-0.597-0.2-1.241-0.507-1.811-0.864-0.612-0.383-1.092-0.79-1.386-1.176-0.060-0.078-0.044-0.19 0.035-0.25s0.192-0.043 0.251 0.035c0.533 0.701 1.806 1.508 3.026 1.917 1.125 0.378 2.32 0.427 3.275 0.134 0.095-0.029 0.195 0.023 0.225 0.118s-0.024 0.194-0.119 0.223c-0.448 0.137-0.936 0.206-1.453 0.206z"></path>
    <path d="M16.537 23.933c-0.067 0-0.135-0.001-0.204-0.003-0.611-0.021-1.23-0.135-1.84-0.34-0.597-0.2-1.241-0.507-1.811-0.864-0.612-0.383-1.092-0.79-1.386-1.176-0.060-0.078-0.044-0.19 0.035-0.25s0.192-0.043 0.251 0.035c0.533 0.701 1.806 1.508 3.026 1.917 1.125 0.378 2.32 0.427 3.275 0.134 0.095-0.029 0.195 0.023 0.225 0.118s-0.024 0.194-0.119 0.223c-0.448 0.137-0.936 0.206-1.453 0.206z"></path>
    <path d="M25.525 26.042c-0.075 0-0.145-0.047-0.17-0.121l-0.794-2.328c-0.024-0.071-0.001-0.149 0.057-0.196 0.246-0.196 0.738-0.552 0.994-0.719 0.083-0.054 0.194-0.031 0.249 0.052s0.031 0.193-0.052 0.247c-0.214 0.139-0.615 0.426-0.868 0.622l0.754 2.209c0.032 0.093-0.018 0.194-0.113 0.226-0.018 0.005-0.038 0.008-0.057 0.008z"></path>
    <path d="M30.279 21.679c-0.084 0-0.16-0.059-0.176-0.144-0.018-0.097 0.045-0.19 0.142-0.209 0.299-0.058 1.027-0.095 1.057-0.097 0.098-0.005 0.183 0.070 0.188 0.169s-0.071 0.182-0.17 0.187c-0.008 0-0.733 0.038-1.009 0.091-0.011 0.003-0.023 0.003-0.034 0.003z"></path>
    <path d="M32.107 23.811c-0.075 0-0.145-0.047-0.17-0.121l-0.731-2.143c-0.032-0.093 0.018-0.194 0.113-0.226s0.196 0.018 0.228 0.112l0.731 2.143c0.032 0.093-0.018 0.194-0.113 0.226-0.019 0.006-0.039 0.009-0.058 0.009z"></path>
    <path d="M26.6 24.958c-0.517 0-1.005-0.069-1.454-0.206-0.095-0.029-0.148-0.128-0.119-0.223s0.13-0.147 0.225-0.118c0.956 0.293 2.15 0.244 3.275-0.134 1.22-0.41 2.491-1.216 3.026-1.917 0.060-0.078 0.172-0.094 0.251-0.035s0.095 0.171 0.035 0.25c-0.294 0.386-0.773 0.794-1.386 1.176-0.57 0.356-1.214 0.663-1.811 0.864-0.61 0.204-1.229 0.32-1.84 0.34-0.068 0.002-0.136 0.003-0.204 0.003z"></path>
    <path d="M26.257 23.951c-0.517 0-1.005-0.069-1.454-0.206-0.095-0.029-0.148-0.129-0.119-0.223s0.13-0.147 0.225-0.118c0.956 0.293 2.15 0.244 3.275-0.134 1.22-0.41 2.491-1.216 3.026-1.917 0.060-0.078 0.172-0.094 0.251-0.035s0.095 0.171 0.035 0.25c-0.294 0.386-0.773 0.794-1.386 1.176-0.57 0.356-1.214 0.663-1.811 0.864-0.61 0.204-1.229 0.32-1.84 0.341-0.068 0.003-0.136 0.003-0.204 0.003z"></path>
</svg>