<svg viewBox="0 0 32 32"
    xmlns="http://www.w3.org/2000/svg" aria-hidden="true">
    <path d="M17.643 0c1.801 0.003 2.713 0.013 3.502 0.036l0.311 0.010c0.359 0.013 0.713 0.029 1.139 0.049 1.702 0.079 2.864 0.348 3.884 0.744 1.055 0.407 1.945 0.956 2.835 1.845 0.888 0.889 1.437 1.783 1.845 2.835 0.395 1.019 0.664 2.181 0.744 3.884 0.019 0.427 0.034 0.781 0.047 1.139l0.010 0.311c0.023 0.788 0.034 1.701 0.037 3.502l0.001 1.193c0 0.146 0 0.296 0 0.451l-0 0.451-0.001 1.193c-0.003 1.801-0.013 2.713-0.036 3.502l-0.010 0.311c-0.013 0.359-0.029 0.713-0.049 1.139-0.079 1.703-0.349 2.864-0.744 3.884-0.407 1.055-0.957 1.945-1.845 2.835-0.889 0.888-1.784 1.437-2.835 1.845-1.020 0.395-2.182 0.664-3.884 0.744-0.427 0.019-0.781 0.035-1.139 0.047l-0.311 0.010c-0.788 0.024-1.701 0.034-3.502 0.038l-1.193 0.001c-0.146 0-0.296 0-0.451 0l-1.644-0.001c-1.801-0.003-2.713-0.012-3.502-0.036l-0.311-0.010c-0.359-0.013-0.713-0.029-1.139-0.049-1.703-0.079-2.863-0.349-3.884-0.744-1.053-0.407-1.945-0.957-2.835-1.845-0.889-0.889-1.437-1.784-1.845-2.835-0.396-1.020-0.664-2.181-0.744-3.884-0.019-0.426-0.035-0.78-0.047-1.139l-0.010-0.311c-0.023-0.788-0.034-1.701-0.038-3.502l-0-3.289c0.003-1.801 0.013-2.713 0.036-3.502l0.010-0.311c0.013-0.359 0.029-0.713 0.049-1.139 0.079-1.704 0.348-2.864 0.744-3.884 0.407-1.053 0.956-1.945 1.845-2.835s1.783-1.437 2.835-1.845c1.020-0.396 2.18-0.664 3.884-0.744 0.427-0.019 0.781-0.035 1.139-0.047l0.311-0.010c0.788-0.023 1.701-0.034 3.502-0.038l3.289-0zM15.999 7.999c-4.421 0-8 3.583-8 8 0 4.421 3.583 8 8 8 4.421 0 8-3.583 8-8 0-4.421-3.583-8-8-8zM15.999 11.199c2.651 0 4.8 2.148 4.8 4.8s-2.148 4.8-4.8 4.8c-2.651 0-4.8-2.148-4.8-4.8s2.148-4.8 4.8-4.8zM24.399 5.599c-1.103 0-2 0.896-2 1.999s0.896 2 2 2c1.103 0 2-0.896 2-2 0-1.103-0.899-2-2-1.999z"></path>
</svg>
