<svg viewBox="0 0 32 32"
    xmlns="http://www.w3.org/2000/svg" aria-hidden="true">
    <path d="M24.888 23.631l6.852 6.852c0.347 0.347 0.347 0.91 0 1.257s-0.91 0.347-1.257 0l-6.852-6.852c-2.507 2.213-5.801 3.557-9.409 3.557-7.855 0-14.222-6.367-14.222-14.222s6.367-14.222 14.222-14.222c7.855 0 14.222 6.367 14.222 14.222 0 3.607-1.343 6.901-3.557 9.409zM14.222 26.667c6.873 0 12.444-5.572 12.444-12.444s-5.572-12.444-12.444-12.444c-6.873 0-12.444 5.572-12.444 12.444s5.572 12.444 12.444 12.444z"></path>
</svg>