<svg viewBox="0 0 32 32"
    xmlns="http://www.w3.org/2000/svg" aria-hidden="true">
    <path fill="#ff8730" style="fill: var(--color1, #ff8730)" d="M31.954 11.591c-0.11-0.339-0.404-0.587-0.757-0.638l-9.92-1.441-4.436-8.989c-0.158-0.32-0.484-0.523-0.841-0.523s-0.683 0.203-0.841 0.523l-4.437 8.989-9.92 1.441c-0.353 0.051-0.646 0.299-0.757 0.638s-0.018 0.712 0.237 0.961l7.178 6.997-1.694 9.88c-0.060 0.352 0.084 0.707 0.373 0.917 0.163 0.119 0.357 0.179 0.551 0.179 0.149 0 0.299-0.036 0.436-0.108l8.873-4.665 8.872 4.665c0.316 0.166 0.699 0.138 0.987-0.071s0.433-0.565 0.373-0.917l-1.695-9.88 7.179-6.997c0.256-0.249 0.348-0.621 0.237-0.961z"></path>
</svg>