<svg viewBox="0 0 32 32"
    xmlns="http://www.w3.org/2000/svg" aria-hidden="true">
    <path d="M15.016 25.623c-0.394 0-0.776-0.077-1.136-0.228-0.347-0.146-0.659-0.355-0.927-0.621s-0.478-0.575-0.625-0.92c-0.152-0.357-0.23-0.736-0.23-1.127s0.077-0.77 0.23-1.127c0.147-0.345 0.357-0.654 0.625-0.92s0.58-0.474 0.927-0.621c0.36-0.151 0.742-0.228 1.136-0.228s0.776 0.077 1.136 0.228c0.347 0.146 0.659 0.355 0.927 0.621s0.478 0.575 0.625 0.92c0.152 0.357 0.23 0.736 0.23 1.127s-0.077 0.77-0.23 1.127c-0.147 0.345-0.357 0.654-0.625 0.92s-0.58 0.474-0.927 0.621c-0.36 0.151-0.742 0.228-1.136 0.228zM15.016 20.218c-1.395 0-2.529 1.126-2.529 2.509s1.134 2.51 2.529 2.51c1.395 0 2.529-1.126 2.529-2.51s-1.135-2.509-2.529-2.509z"></path>
    <path d="M15.016 24.007c-0.711 0-1.29-0.574-1.29-1.279s0.578-1.279 1.29-1.279c0.711 0 1.29 0.574 1.29 1.279s-0.578 1.279-1.29 1.279zM15.016 21.834c-0.497 0-0.901 0.401-0.901 0.894s0.404 0.894 0.901 0.894c0.496 0 0.901-0.401 0.901-0.894s-0.404-0.894-0.901-0.894z"></path>
    <path d="M26.84 25.623c-0.394 0-0.776-0.077-1.136-0.228-0.347-0.146-0.659-0.355-0.927-0.621s-0.478-0.575-0.625-0.92c-0.152-0.357-0.23-0.736-0.23-1.127s0.077-0.77 0.23-1.127c0.147-0.345 0.357-0.654 0.625-0.92s0.58-0.474 0.927-0.621c0.36-0.151 0.742-0.228 1.136-0.228s0.776 0.077 1.136 0.228c0.347 0.146 0.659 0.355 0.927 0.621s0.478 0.575 0.625 0.92c0.152 0.357 0.23 0.736 0.23 1.127s-0.077 0.77-0.23 1.127c-0.147 0.345-0.357 0.654-0.625 0.92s-0.58 0.474-0.927 0.621c-0.36 0.151-0.742 0.228-1.136 0.228zM26.84 20.218c-1.395 0-2.529 1.126-2.529 2.509s1.134 2.51 2.529 2.51c1.395 0 2.529-1.126 2.529-2.51s-1.134-2.509-2.529-2.509z"></path>
    <path d="M26.84 24.007c-0.711 0-1.29-0.574-1.29-1.279s0.578-1.279 1.29-1.279c0.711 0 1.29 0.574 1.29 1.279s-0.578 1.279-1.29 1.279zM26.84 21.834c-0.497 0-0.901 0.401-0.901 0.894s0.404 0.894 0.901 0.894 0.901-0.401 0.901-0.894c0-0.493-0.404-0.894-0.901-0.894z"></path>
    <path d="M26.882 14.982c-0.050 0-0.1-0.019-0.138-0.056-0.076-0.075-0.076-0.197 0-0.273l1.936-1.921c0.076-0.075 0.199-0.075 0.275 0s0.076 0.197 0 0.273l-1.936 1.921c-0.038 0.038-0.088 0.056-0.138 0.056z"></path>
    <path d="M28.202 14.772c-0.050 0-0.1-0.019-0.138-0.056-0.076-0.075-0.076-0.197 0-0.273l1.033-1.025c0.076-0.075 0.199-0.075 0.275 0s0.076 0.197 0 0.273l-1.033 1.025c-0.038 0.038-0.088 0.056-0.138 0.056z"></path>
    <path d="M31.162 22.469h-0.481c-0.22 0-0.407-0.155-0.445-0.369-0.29-1.638-1.718-2.827-3.398-2.827-0.564 0-1.123 0.139-1.618 0.4-0.142 0.075-0.309 0.071-0.446-0.011s-0.22-0.226-0.22-0.385v-7.026c0-0.46 0.378-0.836 0.842-0.836h3.090c0.439 0 0.854 0.212 1.109 0.568l1.634 2.283c0.337 0.47 0.515 1.024 0.515 1.601v3.915c0 0.107-0.087 0.193-0.194 0.193s-0.194-0.086-0.194-0.193v-3.915c0-0.497-0.153-0.972-0.443-1.377l-1.634-2.283c-0.182-0.254-0.478-0.406-0.793-0.406h-3.090c-0.25 0-0.453 0.202-0.453 0.45v7.027c0 0.031 0.020 0.048 0.031 0.054s0.035 0.016 0.063 0.001c0.551-0.291 1.174-0.445 1.801-0.445 0.463 0 0.915 0.081 1.344 0.24 0.415 0.154 0.797 0.377 1.137 0.662 0.684 0.575 1.145 1.372 1.299 2.243 0.005 0.029 0.032 0.051 0.063 0.051h0.481c0.107 0 0.194-0.086 0.194-0.193v-1.167c0-0.107 0.087-0.193 0.194-0.193s0.194 0.086 0.194 0.193v1.167c0 0.318-0.262 0.577-0.583 0.577z"></path>
    <path d="M31.549 15.946h-5.18c-0.322 0-0.583-0.26-0.583-0.579v-3.76c0-0.107 0.087-0.193 0.194-0.193s0.194 0.086 0.194 0.193v3.76c0 0.107 0.087 0.193 0.194 0.193h5.18c0.107 0 0.194 0.086 0.194 0.193s-0.087 0.193-0.194 0.193z"></path>
    <path d="M27.244 16.877h-1.177c-0.107 0-0.194-0.086-0.194-0.193s0.087-0.193 0.194-0.193h1.177c0.107 0 0.194 0.086 0.194 0.193s-0.087 0.193-0.194 0.193z"></path>
    <path d="M31.552 18.698h-1.49c-0.322 0-0.583-0.26-0.583-0.579v-0.578c0-0.319 0.262-0.579 0.583-0.579h1.49c0.107 0 0.194 0.086 0.194 0.193s-0.087 0.193-0.194 0.193h-1.49c-0.107 0-0.194 0.086-0.194 0.193v0.579c0 0.107 0.087 0.193 0.194 0.193h1.49c0.107 0 0.194 0.086 0.194 0.193s-0.087 0.192-0.194 0.192z"></path>
    <path d="M32.081 20.916h-1.393c-0.107 0-0.194-0.086-0.194-0.193s0.087-0.193 0.194-0.193h1.198v-0.557h-1.792c-0.107 0-0.194-0.086-0.194-0.193s0.087-0.193 0.194-0.193h1.987c0.107 0 0.194 0.086 0.194 0.193v0.942c-0.001 0.107-0.088 0.194-0.194 0.194z"></path>
    <path d="M24.75 18.391h-1.36c-0.107 0-0.194-0.086-0.194-0.193s0.087-0.193 0.194-0.193h1.36c0.107 0 0.194 0.086 0.194 0.193s-0.087 0.193-0.194 0.193z"></path>
    <path d="M24.343 21.839h-1.698c-0.107 0-0.194-0.086-0.194-0.193s0.087-0.193 0.194-0.193h1.698c0.107 0 0.194 0.086 0.194 0.193s-0.087 0.193-0.194 0.193z"></path>
    <path d="M11.631 22.807h-0.616c-0.322 0-0.583-0.26-0.583-0.579v-1.559c0-0.107 0.087-0.193 0.194-0.193s0.194 0.086 0.194 0.193v1.559c0 0.107 0.087 0.193 0.194 0.193h0.616c0.107 0 0.194 0.086 0.194 0.193s-0.087 0.193-0.194 0.193z"></path>
    <path d="M22.255 22.807h-3.676c-0.107 0-0.194-0.086-0.194-0.193s0.087-0.193 0.194-0.193h3.676c0.107 0 0.194-0.086 0.194-0.193v-1.559c0-0.107 0.087-0.193 0.194-0.193s0.194 0.086 0.194 0.193v1.559c-0.001 0.319-0.262 0.579-0.583 0.579z"></path>
    <path d="M22.742 20.863h-4.729c-0.064 0-0.124-0.031-0.159-0.083-0.646-0.924-1.706-1.474-2.836-1.474s-2.19 0.551-2.836 1.474c-0.036 0.052-0.096 0.083-0.159 0.083h-1.393c-0.464 0-0.842-0.375-0.842-0.836v-2.021c0-0.319 0.262-0.579 0.583-0.579h12.632c0.322 0 0.583 0.26 0.583 0.579v2.021c-0.001 0.461-0.379 0.836-0.843 0.836zM18.113 20.477h4.629c0.25 0 0.453-0.202 0.453-0.45v-2.021c0-0.107-0.087-0.193-0.194-0.193h-12.632c-0.107 0-0.194 0.086-0.194 0.193v2.021c0 0.248 0.204 0.45 0.454 0.45h1.294c0.34-0.458 0.783-0.841 1.287-1.109 0.552-0.293 1.178-0.449 1.808-0.449s1.256 0.155 1.808 0.449c0.505 0.268 0.948 0.651 1.287 1.109z"></path>
    <path d="M22.536 17.813c-0.107 0-0.194-0.086-0.194-0.193v-0.557c0-0.107-0.087-0.193-0.194-0.193h-11.044c-0.107 0-0.194 0.086-0.194 0.193v0.557c0 0.107-0.087 0.193-0.194 0.193s-0.194-0.086-0.194-0.193v-0.557c0-0.319 0.262-0.579 0.583-0.579h11.045c0.322 0 0.583 0.26 0.583 0.579v0.557c-0.001 0.107-0.088 0.193-0.195 0.193z"></path>
    <path d="M22.018 7.233c-0.165-0.164-0.385-0.255-0.62-0.255h-9.582c-0.234 0-0.454 0.090-0.62 0.255s-0.257 0.383-0.257 0.615v8.158c0 0.232 0.091 0.451 0.257 0.615s0.385 0.255 0.62 0.255h9.582c0.234 0 0.454-0.090 0.62-0.255s0.257-0.382 0.257-0.615v-8.158c0-0.232-0.091-0.451-0.257-0.615zM15.507 10.283v-2.957h2.454v2.957l-1.122-0.835c-0.062-0.047-0.148-0.047-0.21 0l-1.122 0.835zM21.924 16.006c0 0.288-0.236 0.522-0.526 0.522h-9.582c-0.29 0-0.526-0.234-0.526-0.522v-8.158c0-0.288 0.236-0.522 0.526-0.522h3.341v2.957c0 0.132 0.074 0.252 0.194 0.311s0.26 0.047 0.367-0.033l1.017-0.756 1.017 0.756c0.062 0.046 0.136 0.070 0.21 0.070 0.053 0 0.107-0.012 0.157-0.037 0.12-0.059 0.194-0.179 0.194-0.311v-2.957h3.086c0.29 0 0.526 0.234 0.526 0.522v8.158z"></path>
</svg>