<svg viewBox="0 0 32 32"
    xmlns="http://www.w3.org/2000/svg" aria-hidden="true">
    <path d="M22.156 17.881l6.913 3.142c1.785 0.811 2.931 2.591 2.931 4.552v1.424c0 2.761-2.239 5-5 5h-22c-2.761 0-5-2.239-5-5v-1.424c0-1.961 1.146-3.74 2.931-4.552l6.913-3.142c-2.34-1.83-3.844-4.68-3.844-7.881 0-5.523 4.477-10 10-10s10 4.477 10 10c0 3.201-1.504 6.051-3.844 7.881zM11.923 19.134l-8.164 3.711c-1.071 0.487-1.759 1.555-1.759 2.731v1.424c0 1.657 1.343 3 3 3h22c1.657 0 3-1.343 3-3v-1.424c0-1.176-0.688-2.244-1.759-2.731l-8.164-3.711c-1.245 0.557-2.625 0.866-4.077 0.866s-2.832-0.31-4.077-0.866zM16 18c4.418 0 8-3.582 8-8s-3.582-8-8-8c-4.418 0-8 3.582-8 8s3.582 8 8 8z"></path>
</svg>