<svg viewBox="0 0 32 32"
    xmlns="http://www.w3.org/2000/svg" aria-hidden="true">
    <path d="M29.767 26.838h-2.838c-0.141 0-0.255-0.114-0.255-0.255s0.114-0.255 0.255-0.255h2.838c0.922 0 1.672-0.75 1.672-1.672v-22.472c0-0.922-0.75-1.672-1.672-1.672h-27.583c-0.922 0-1.672 0.75-1.672 1.672v22.47c0 0.922 0.75 1.672 1.672 1.672h14.617c0.141 0 0.255 0.114 0.255 0.255s-0.114 0.255-0.255 0.255h-14.617c-0.583 0-1.131-0.227-1.544-0.64s-0.64-0.961-0.64-1.544v-22.468c0-0.583 0.227-1.131 0.64-1.544s0.961-0.64 1.544-0.64h27.582c0.583 0 1.131 0.227 1.544 0.64s0.64 0.961 0.64 1.544v22.47c0 0.583-0.227 1.131-0.64 1.544s-0.961 0.64-1.544 0.64z"></path>
    <path d="M22.468 26.839h-1.207c-0.141 0-0.255-0.114-0.255-0.255s0.114-0.255 0.255-0.255h1.207c0.141 0 0.255 0.114 0.255 0.255s-0.114 0.255-0.255 0.255z"></path>
    <path d="M22.291 24.176c-0.69 0-1.362-0.131-2-0.389-0.66-0.267-1.251-0.661-1.758-1.168s-0.9-1.099-1.168-1.758c-0.259-0.637-0.389-1.309-0.389-2s0.131-1.363 0.389-2c0.267-0.66 0.661-1.251 1.168-1.758s1.099-0.9 1.758-1.168c0.637-0.259 1.309-0.389 2-0.389s1.363 0.131 2 0.389c0.66 0.267 1.251 0.661 1.758 1.168s0.9 1.099 1.168 1.758c0.259 0.637 0.389 1.309 0.389 2s-0.131 1.362-0.389 2c-0.267 0.66-0.661 1.251-1.168 1.758s-1.099 0.9-1.758 1.168c-0.637 0.258-1.309 0.389-2 0.389zM22.291 14.058c-1.283 0-2.489 0.499-3.397 1.406-1.873 1.873-1.873 4.92 0 6.793s4.92 1.873 6.793 0c0.907-0.907 1.407-2.114 1.407-3.397s-0.499-2.489-1.407-3.397c-0.906-0.906-2.113-1.406-3.396-1.406z"></path>
    <path d="M26.165 18.285c-0.118 0-0.224-0.083-0.25-0.203-0.053-0.251-0.132-0.496-0.234-0.73-0.057-0.128 0.002-0.28 0.131-0.337s0.28 0.002 0.337 0.131c0.117 0.266 0.206 0.545 0.267 0.83 0.029 0.139-0.059 0.273-0.198 0.303-0.018 0.003-0.035 0.006-0.053 0.006z"></path>
    <path d="M25.576 16.887c-0.083 0-0.163-0.040-0.212-0.113-0.134-0.198-0.289-0.386-0.46-0.559-0.128-0.128-0.265-0.247-0.408-0.354-0.113-0.084-0.136-0.245-0.052-0.358s0.245-0.136 0.358-0.052c0.163 0.122 0.319 0.257 0.464 0.402 0.195 0.195 0.371 0.408 0.523 0.634 0.078 0.117 0.048 0.276-0.070 0.355-0.044 0.030-0.093 0.044-0.142 0.044z"></path>
    <path d="M23.709 15.391c-0.030 0-0.062-0.006-0.092-0.018-0.21-0.082-0.43-0.145-0.653-0.185-0.139-0.027-0.23-0.16-0.203-0.299s0.16-0.23 0.299-0.204c0.253 0.048 0.503 0.119 0.742 0.211 0.132 0.051 0.197 0.198 0.147 0.33-0.041 0.103-0.137 0.165-0.24 0.165z"></path>
    <path d="M18.552 20.548c-0.103 0-0.199-0.062-0.239-0.163-0.109-0.282-0.188-0.577-0.235-0.877-0.021-0.14 0.074-0.271 0.213-0.292s0.27 0.074 0.292 0.213c0.041 0.264 0.111 0.523 0.206 0.771 0.051 0.132-0.015 0.279-0.147 0.33-0.029 0.012-0.061 0.018-0.091 0.018z"></path>
    <path d="M21.445 23.005c-0.018 0-0.035-0.002-0.053-0.006-0.805-0.169-1.538-0.567-2.12-1.15-0.16-0.16-0.309-0.335-0.441-0.516-0.083-0.114-0.057-0.274 0.057-0.357s0.274-0.057 0.357 0.057c0.116 0.16 0.247 0.314 0.387 0.454 0.513 0.513 1.158 0.863 1.865 1.012 0.139 0.029 0.226 0.164 0.197 0.303-0.025 0.122-0.132 0.204-0.249 0.204z"></path>
    <path d="M21.742 25.555c-0.044 0-0.090-0.012-0.129-0.035l-0.665-0.387-0.767 0.067c-0.075 0.007-0.148-0.020-0.202-0.072l-0.548-0.54-0.759-0.126c-0.074-0.012-0.139-0.056-0.177-0.121l-0.396-0.66-0.704-0.31c-0.069-0.030-0.12-0.090-0.141-0.161l-0.22-0.737-0.605-0.476c-0.059-0.047-0.094-0.116-0.097-0.191l-0.029-0.768-0.467-0.611c-0.045-0.060-0.063-0.135-0.047-0.21l0.162-0.752-0.301-0.708c-0.029-0.069-0.027-0.147 0.007-0.215l0.344-0.688-0.115-0.761c-0.011-0.074 0.011-0.149 0.060-0.205l0.504-0.581 0.078-0.766c0.008-0.075 0.047-0.141 0.109-0.185l0.633-0.437 0.266-0.722c0.026-0.071 0.082-0.126 0.152-0.152l0.722-0.266 0.437-0.633c0.042-0.062 0.11-0.101 0.184-0.11l0.766-0.078 0.581-0.504c0.057-0.049 0.132-0.071 0.205-0.060l0.761 0.115 0.688-0.344c0.067-0.034 0.146-0.036 0.215-0.007l0.708 0.301 0.752-0.162c0.072-0.015 0.149 0.001 0.21 0.047l0.611 0.467 0.768 0.029c0.075 0.003 0.145 0.038 0.191 0.097l0.476 0.604 0.737 0.22c0.072 0.022 0.131 0.072 0.161 0.141l0.31 0.704 0.66 0.396c0.064 0.038 0.108 0.103 0.121 0.177l0.126 0.759 0.54 0.548c0.052 0.053 0.078 0.127 0.072 0.202l-0.067 0.767 0.387 0.665c0.037 0.065 0.045 0.142 0.021 0.213l-0.255 0.725 0.21 0.74c0.021 0.072 0.008 0.149-0.034 0.211l-0.428 0.639 0.019 0.768c0.002 0.075-0.029 0.147-0.085 0.197l-0.573 0.513-0.173 0.75c-0.016 0.072-0.065 0.134-0.132 0.169l-0.683 0.354-0.354 0.683c-0.034 0.067-0.097 0.114-0.169 0.132l-0.75 0.173-0.513 0.573c-0.050 0.056-0.122 0.086-0.197 0.085l-0.768-0.019-0.639 0.428c-0.062 0.041-0.14 0.054-0.211 0.034l-0.74-0.209-0.725 0.255c-0.033 0.015-0.061 0.019-0.090 0.019zM21.006 24.617c0.045 0 0.090 0.012 0.128 0.035l0.633 0.369 0.691-0.243c0.050-0.018 0.104-0.020 0.154-0.005l0.705 0.199 0.609-0.407c0.044-0.029 0.096-0.044 0.148-0.043l0.732 0.018 0.489-0.546c0.035-0.040 0.082-0.067 0.133-0.078l0.714-0.166 0.337-0.65c0.025-0.047 0.063-0.085 0.11-0.11l0.65-0.337 0.166-0.714c0.012-0.051 0.040-0.098 0.078-0.133l0.546-0.489-0.018-0.732c-0.001-0.053 0.014-0.104 0.043-0.148l0.407-0.609-0.199-0.705c-0.015-0.051-0.013-0.104 0.005-0.154l0.243-0.691-0.369-0.633c-0.027-0.045-0.038-0.098-0.034-0.15l0.064-0.73-0.514-0.522c-0.037-0.037-0.062-0.085-0.070-0.138l-0.12-0.723-0.628-0.378c-0.045-0.028-0.080-0.068-0.103-0.116l-0.296-0.67-0.702-0.21c-0.050-0.015-0.096-0.045-0.128-0.086l-0.454-0.575-0.731-0.028c-0.053-0.002-0.104-0.021-0.146-0.052l-0.582-0.444-0.716 0.154c-0.051 0.011-0.105 0.006-0.153-0.015l-0.674-0.286-0.654 0.328c-0.047 0.023-0.1 0.033-0.153 0.025l-0.724-0.11-0.553 0.48c-0.040 0.035-0.090 0.056-0.141 0.061l-0.729 0.074-0.416 0.603c-0.029 0.043-0.072 0.077-0.122 0.094l-0.687 0.253-0.253 0.687c-0.019 0.049-0.051 0.092-0.094 0.122l-0.603 0.416-0.074 0.729c-0.005 0.052-0.027 0.103-0.061 0.141l-0.48 0.553 0.11 0.724c0.008 0.052-0.001 0.105-0.025 0.153l-0.328 0.654 0.286 0.674c0.021 0.048 0.026 0.103 0.015 0.154l-0.154 0.716 0.444 0.582c0.033 0.042 0.050 0.092 0.052 0.146l0.028 0.731 0.575 0.454c0.041 0.033 0.072 0.078 0.086 0.128l0.21 0.702 0.67 0.296c0.048 0.022 0.089 0.057 0.116 0.103l0.378 0.628 0.723 0.12c0.052 0.009 0.1 0.034 0.138 0.070l0.522 0.514 0.73-0.064c0.005 0.001 0.013 0.001 0.020 0.001z"></path>
    <path d="M19.151 19.944c-0.066 0-0.131-0.025-0.181-0.075-0.1-0.1-0.1-0.261 0-0.362l3.952-3.952c0.1-0.1 0.261-0.1 0.362 0s0.1 0.261 0 0.362l-3.952 3.952c-0.050 0.051-0.116 0.075-0.181 0.075z"></path>
    <path d="M23.093 17.442c-0.066 0-0.131-0.024-0.181-0.075-0.1-0.1-0.1-0.261 0-0.362l0.508-0.508c0.1-0.1 0.261-0.1 0.362 0s0.1 0.261 0 0.362l-0.508 0.508c-0.051 0.050-0.116 0.075-0.181 0.075z"></path>
    <path d="M19.826 20.616c-0.066 0-0.131-0.025-0.181-0.075-0.1-0.1-0.1-0.261 0-0.362l2.526-2.526c0.1-0.1 0.261-0.1 0.362 0s0.1 0.261 0 0.362l-2.526 2.526c-0.050 0.051-0.116 0.075-0.181 0.075z"></path>
    <path d="M22.117 19.673c-0.066 0-0.131-0.024-0.181-0.075-0.1-0.1-0.1-0.261 0-0.362l2.335-2.335c0.1-0.1 0.261-0.1 0.362 0s0.1 0.261 0 0.362l-2.335 2.335c-0.050 0.050-0.116 0.075-0.181 0.075z"></path>
    <path d="M20.497 21.291c-0.066 0-0.131-0.025-0.181-0.075-0.1-0.1-0.1-0.261 0-0.362l0.863-0.863c0.1-0.1 0.261-0.1 0.362 0s0.1 0.261 0 0.362l-0.863 0.863c-0.050 0.049-0.116 0.075-0.181 0.075z"></path>
    <path d="M21.256 22.049c-0.066 0-0.131-0.024-0.181-0.075-0.1-0.1-0.1-0.261 0-0.362l3.952-3.952c0.1-0.1 0.261-0.1 0.362 0s0.1 0.261 0 0.362l-3.952 3.952c-0.051 0.049-0.116 0.075-0.181 0.075z"></path>
    <path d="M28.003 6.216h-23.794c-0.768 0-1.394-0.625-1.394-1.394s0.625-1.394 1.394-1.394h23.794c0.768 0 1.394 0.625 1.394 1.394s-0.626 1.394-1.394 1.394zM4.208 3.94c-0.486 0-0.883 0.396-0.883 0.883s0.396 0.883 0.883 0.883h23.794c0.486 0 0.883-0.396 0.883-0.883s-0.396-0.883-0.883-0.883h-23.794z"></path>
    <path d="M15.974 8.412h-13.019c-0.141 0-0.255-0.114-0.255-0.255s0.114-0.255 0.255-0.255h13.019c0.141 0 0.255 0.114 0.255 0.255s-0.114 0.255-0.255 0.255z"></path>
    <path d="M12.268 10.202h-9.312c-0.141 0-0.255-0.114-0.255-0.255s0.114-0.255 0.255-0.255h9.312c0.141 0 0.255 0.114 0.255 0.255s-0.114 0.255-0.255 0.255z"></path>
    <path d="M13.291 11.99h-10.335c-0.141 0-0.255-0.114-0.255-0.255s0.114-0.255 0.255-0.255h10.335c0.141 0 0.255 0.114 0.255 0.255s-0.114 0.255-0.255 0.255z"></path>
    <path d="M9.459 20.447h-5.112c-0.845 0-1.533-0.688-1.533-1.533s0.688-1.533 1.533-1.533h5.112c0.845 0 1.533 0.688 1.533 1.533s-0.688 1.533-1.533 1.533zM4.347 17.891c-0.563 0-1.023 0.459-1.023 1.023s0.459 1.023 1.023 1.023h5.112c0.563 0 1.023-0.459 1.023-1.023s-0.459-1.023-1.023-1.023h-5.112z"></path>
    <path d="M19.2 31.969c-0.003 0-0.006 0-0.009 0-0.107-0.004-0.202-0.075-0.234-0.177l-0.899-2.783-2.576 1.387c-0.094 0.051-0.211 0.037-0.292-0.034s-0.107-0.185-0.067-0.286l2.721-6.774c0.053-0.131 0.202-0.195 0.332-0.141s0.195 0.202 0.141 0.332l-2.458 6.118 2.224-1.198c0.067-0.036 0.147-0.041 0.216-0.012s0.125 0.086 0.147 0.159l0.778 2.403 2.336-5.814c0.053-0.131 0.202-0.195 0.332-0.141s0.195 0.202 0.141 0.332l-2.598 6.468c-0.038 0.097-0.133 0.16-0.237 0.16z"></path>
    <path d="M24.53 31.967c-0.104 0-0.198-0.063-0.237-0.16l-2.602-6.477c-0.053-0.131 0.011-0.28 0.141-0.332 0.131-0.053 0.28 0.011 0.332 0.141l2.339 5.822 0.778-2.403c0.023-0.072 0.078-0.131 0.147-0.159s0.149-0.023 0.216 0.012l2.224 1.198-2.19-5.451c-0.053-0.131 0.011-0.28 0.141-0.332 0.131-0.053 0.28 0.011 0.332 0.141l2.452 6.106c0.041 0.1 0.014 0.215-0.067 0.286s-0.197 0.085-0.292 0.034l-2.576-1.387-0.897 2.782c-0.034 0.103-0.127 0.173-0.234 0.177-0.002 0.001-0.004 0.001-0.008 0.001z"></path>
    <path d="M18.404 11.245c-0.141 0-0.255-0.114-0.255-0.255v-1.278c0-0.141 0.114-0.255 0.255-0.255s0.255 0.114 0.255 0.255v1.278c0 0.141-0.114 0.255-0.255 0.255z"></path>
    <path d="M19.042 10.606h-1.278c-0.141 0-0.255-0.114-0.255-0.255s0.114-0.255 0.255-0.255h1.278c0.141 0 0.255 0.114 0.255 0.255s-0.114 0.255-0.255 0.255z"></path>
    <path d="M23.773 9.716c-0.141 0-0.255-0.114-0.255-0.255v-1.278c0-0.141 0.114-0.255 0.255-0.255s0.255 0.114 0.255 0.255v1.278c0.001 0.141-0.114 0.255-0.255 0.255z"></path>
    <path d="M24.411 9.077h-1.278c-0.141 0-0.255-0.114-0.255-0.255s0.114-0.255 0.255-0.255h1.278c0.141 0 0.255 0.114 0.255 0.255s-0.114 0.255-0.255 0.255z"></path>
    <path d="M27.86 13.291c-0.141 0-0.255-0.114-0.255-0.255v-1.278c0-0.141 0.114-0.255 0.255-0.255s0.255 0.114 0.255 0.255v1.278c0 0.14-0.114 0.255-0.255 0.255z"></path>
    <path d="M28.498 12.653h-1.278c-0.141 0-0.255-0.114-0.255-0.255s0.114-0.255 0.255-0.255h1.278c0.141 0 0.255 0.114 0.255 0.255s-0.114 0.255-0.255 0.255z"></path>
    <path d="M14.058 16.358c-0.141 0-0.255-0.114-0.255-0.255v-1.278c0-0.141 0.114-0.255 0.255-0.255s0.255 0.114 0.255 0.255v1.278c0 0.141-0.114 0.255-0.255 0.255z"></path>
    <path d="M14.696 15.72h-1.278c-0.141 0-0.255-0.114-0.255-0.255s0.114-0.255 0.255-0.255h1.278c0.141 0 0.255 0.114 0.255 0.255s-0.114 0.255-0.255 0.255z"></path>
    <path d="M14.825 23.771c-0.141 0-0.255-0.114-0.255-0.255v-1.278c0-0.141 0.114-0.255 0.255-0.255s0.255 0.114 0.255 0.255v1.278c0.001 0.141-0.114 0.255-0.255 0.255z"></path>
    <path d="M15.463 23.133h-1.278c-0.141 0-0.255-0.114-0.255-0.255s0.114-0.255 0.255-0.255h1.278c0.141 0 0.255 0.114 0.255 0.255s-0.114 0.255-0.255 0.255z"></path>
</svg>